{"title":"Killing Gunther 2017 1080p BluRay 6CH (5.1) AAC x264 - EiE","magnet":"magnet:?xt=urn:btih:2fb12826c248cc255c1e95a543d116fca91be913&dn=Killing+Gunther+2017+1080p+BluRay+6CH+%285.1%29+AAC+x264+-+EiE&tr=udp%3A%2F%2Ftracker.leechers-paradise.org%3A6969&tr=udp%3A%2F%2Fzer0day.ch%3A1337&tr=udp%3A%2F%2Fopen.demonii.com%3A1337&tr=udp%3A%2F%2Ftracker.coppersurfer.tk%3A6969&tr=udp%3A%2F%2Fexodus.desync.com%3A6969","uploader":"samcode4u","categoryP":"video","categoryS":"hd___movies","size":"1502057910","seeders":"0","leechers":"19","description":"Killing Gunther 2017 1080p BluRay 6CH (5.1) AAC x264 - EiE\r\n\r\n <a href=\"\nhttps://www.imdb.com/title/tt5689068/\" rel=\"nofollow\" target=\"_NEW\">\nhttps://www.imdb.com/title/tt5689068/</a>\r\n\r\n\r\n\r\nScreenshots:\r\n\r\n <a href=\"\nhttps://lensdump.com/i/ptHQv\" rel=\"nofollow\" target=\"_NEW\">\nhttps://lensdump.com/i/ptHQv</a>\r\n <a href=\"\nhttps://lensdump.com/i/ptOA2\" rel=\"nofollow\" target=\"_NEW\">\nhttps://lensdump.com/i/ptOA2</a>\r\n <a href=\"\nhttps://lensdump.com/i/ptlnC\" rel=\"nofollow\" target=\"_NEW\">\nhttps://lensdump.com/i/ptlnC</a>\r\n <a href=\"\nhttps://lensdump.com/i/ptzy5\" rel=\"nofollow\" target=\"_NEW\">\nhttps://lensdump.com/i/ptzy5</a>\r\n\r\n\r\nVideo\r\nID                                       : 1\r\nFormat                                   : AVC\r\nFormat/Info                              : Advanced Video Codec\r\nFormat settings, CABAC                   : Yes\r\nFormat settings, ReFrames                : 4 frames\r\nCodec ID                                 : avc1\r\nCodec ID/Info                            : Advanced Video Coding\r\nDuration                                 : 1h 33mn\r\nBit rate                                 : 1 888 Kbps\r\nMaximum bit rate                         : 10.5 Mbps\r\nWidth                                    : 1 912 pixels\r\nHeight                                   : 1 032 pixels\r\nDisplay aspect ratio                     : 1.85:1\r\nFrame rate mode                          : Constant\r\nFrame rate                               : 23.976 fps\r\nColor space                              : YUV\r\nChroma subsampling                       : 4:2:0\r\nBit depth                                : 8 bits\r\nScan type                                : Progressive\r\nBits/(Pixel*Frame)                       : 0.040\r\nStream size                              : 1.23 GiB (88%)\r\n\r\n\r\nAudio\r\nID                                       : 2\r\nFormat                                   : AAC\r\nFormat/Info                              : Advanced Audio Codec\r\nFormat profile                           : LC\r\nCodec ID                                 : 40\r\nDuration                                 : 1h 33mn\r\nBit rate mode                            : Variable\r\nBit rate                                 : 253 Kbps\r\nMaximum bit rate                         : 329 Kbps\r\nChannel(s)                               : 6 channels\r\nChannel positions                        : Front: L C R, Side: L R, LFE\r\nSampling rate                            : 48.0 KHz\r\nCompression mode                         : Lossy\r\nStream size                              : 169 MiB (12%)\r\nLanguage                                 : English","last_updated":"2017-12-21T12:02:14.356Z","parsed":{"xt":"urn:btih:2fb12826c248cc255c1e95a543d116fca91be913","dn":"Killing Gunther 2017 1080p BluRay 6CH (5.1) AAC x264 - EiE","tr":["udp://exodus.desync.com:6969","udp://open.demonii.com:1337","udp://tracker.coppersurfer.tk:6969","udp://tracker.leechers-paradise.org:6969","udp://zer0day.ch:1337"],"infoHash":"2fb12826c248cc255c1e95a543d116fca91be913","infoHashBuffer":{"type":"Buffer","data":[47,177,40,38,194,72,204,37,92,30,149,165,67,209,22,252,169,27,233,19]},"name":"Killing Gunther 2017 1080p BluRay 6CH (5.1) AAC x264 - EiE","announce":["udp://exodus.desync.com:6969","udp://open.demonii.com:1337","udp://tracker.coppersurfer.tk:6969","udp://tracker.leechers-paradise.org:6969","udp://zer0day.ch:1337"],"urlList":[]}}